# Blender 4.0.0
# www.blender.org
mtllib untitled.mtl
o Cube
v -1.000000 -1.000000 1.000000
v -1.000000 1.000000 1.000000
v -1.000000 -1.000000 -1.000000
v -1.000000 1.000000 -1.000000
v 1.000000 -1.000000 1.000000
v 1.000000 1.000000 1.000000
v 1.000000 -1.000000 -1.000000
v 1.000000 1.000000 -1.000000
vn -1.0000 -0.0000 -0.0000
vn -0.0000 -0.0000 -1.0000
vn 1.0000 -0.0000 -0.0000
vn -0.0000 -0.0000 1.0000
vn -0.0000 -1.0000 -0.0000
vn -0.0000 1.0000 -0.0000
vt 0.375000 0.000000
vt 0.625000 0.000000
vt 0.625000 0.250000
vt 0.375000 0.250000
vt 0.625000 0.500000
vt 0.375000 0.500000
vt 0.625000 0.750000
vt 0.375000 0.750000
vt 0.625000 1.000000
vt 0.375000 1.000000
vt 0.125000 0.500000
vt 0.125000 0.750000
vt 0.875000 0.500000
vt 0.875000 0.750000
s 0
f 1/1/1 2/2/1 4/3/1 3/4/1
f 3/4/2 4/3/2 8/5/2 7/6/2
f 7/6/3 8/5/3 6/7/3 5/8/3
f 5/8/4 6/7/4 2/9/4 1/10/4
f 3/11/5 7/6/5 5/8/5 1/12/5
f 8/5/6 4/13/6 2/14/6 6/7/6
o Cube.001
v -4.164172 0.672105 1.805031
v -4.164172 1.672105 1.805031
v -4.164172 0.672105 0.805031
v -4.164172 1.672105 0.805031
v -3.164172 0.672105 1.805031
v -3.164172 1.672105 1.805031
v -3.164172 0.672105 0.805031
v -3.164172 1.672105 0.805031
v -4.237104 0.599172 1.008381
v -4.273740 0.562537 1.305031
v -4.237104 0.599172 1.601681
v -4.237104 0.875455 1.877963
v -4.273740 1.172105 1.914598
v -4.237104 1.468755 1.877963
v -4.237104 1.745038 1.601681
v -4.273740 1.781673 1.305031
v -4.237104 1.745038 1.008381
v -4.237104 1.468755 0.732098
v -4.273740 1.172105 0.695463
v -4.237104 0.875455 0.732098
v -3.367522 0.599172 0.732098
v -3.664172 0.562537 0.695463
v -3.960822 0.599172 0.732098
v -3.960822 1.745038 0.732098
v -3.664172 1.781673 0.695463
v -3.367522 1.745038 0.732098
v -3.091239 1.468755 0.732098
v -3.054604 1.172105 0.695463
v -3.091239 0.875455 0.732098
v -3.091239 0.599172 1.601681
v -3.054604 0.562537 1.305031
v -3.091239 0.599172 1.008381
v -3.091239 1.745038 1.008381
v -3.054604 1.781673 1.305031
v -3.091239 1.745038 1.601681
v -3.091239 1.468755 1.877963
v -3.054604 1.172105 1.914598
v -3.091239 0.875455 1.877963
v -3.960822 0.599172 1.877963
v -3.664172 0.562537 1.914598
v -3.367522 0.599172 1.877963
v -3.367522 1.745038 1.877963
v -3.664172 1.781673 1.914598
v -3.960822 1.745038 1.877963
v -4.393162 0.855948 1.621188
v -4.446001 1.172105 1.638171
v -4.393162 1.488262 1.621188
v -4.446001 0.838964 1.305031
v -4.503678 1.172105 1.305031
v -4.446001 1.505245 1.305031
v -4.393162 0.855948 0.988873
v -4.446001 1.172105 0.971890
v -4.393162 1.488262 0.988873
v -3.980329 0.855948 0.576041
v -3.997312 1.172105 0.523202
v -3.980329 1.488262 0.576041
v -3.664172 0.838964 0.523202
v -3.664172 1.172105 0.465524
v -3.664172 1.505245 0.523202
v -3.348015 0.855948 0.576041
v -3.331031 1.172105 0.523202
v -3.348015 1.488262 0.576041
v -2.935182 0.855948 0.988873
v -2.882343 1.172105 0.971890
v -2.935182 1.488262 0.988873
v -2.882343 0.838964 1.305031
v -2.824666 1.172105 1.305031
v -2.882343 1.505245 1.305031
v -2.935182 0.855948 1.621188
v -2.882343 1.172105 1.638171
v -2.935182 1.488262 1.621188
v -3.348015 0.855948 2.034020
v -3.331031 1.172105 2.086859
v -3.348015 1.488262 2.034020
v -3.664172 0.838964 2.086859
v -3.664172 1.172105 2.144537
v -3.664172 1.505245 2.086859
v -3.980329 0.855948 2.034020
v -3.997312 1.172105 2.086859
v -3.980329 1.488262 2.034020
v -3.980329 0.443115 0.988873
v -3.664172 0.390276 0.971890
v -3.348015 0.443115 0.988873
v -3.997312 0.390276 1.305031
v -3.664172 0.332599 1.305031
v -3.331031 0.390276 1.305031
v -3.980329 0.443115 1.621188
v -3.664172 0.390276 1.638171
v -3.348015 0.443115 1.621188
v -3.348015 1.901095 0.988873
v -3.664172 1.953934 0.971890
v -3.980329 1.901095 0.988873
v -3.331031 1.953934 1.305031
v -3.664172 2.011611 1.305031
v -3.997312 1.953934 1.305031
v -3.348015 1.901095 1.621188
v -3.664172 1.953934 1.638171
v -3.980329 1.901095 1.621188
vn -0.9708 -0.1697 0.1697
vn -0.9708 0.1697 0.1697
vn -0.9708 -0.1697 -0.1697
vn -0.9708 0.1697 -0.1697
vn -0.7504 -0.4674 0.4674
vn -0.8367 -0.1678 0.5213
vn -0.8367 0.1678 0.5213
vn -0.7504 0.4674 0.4674
vn -0.8367 0.5213 0.1678
vn -0.8367 0.5213 -0.1678
vn -0.7504 0.4674 -0.4674
vn -0.8367 0.1678 -0.5213
vn -0.8367 -0.1678 -0.5213
vn -0.7504 -0.4674 -0.4674
vn -0.8367 -0.5213 -0.1678
vn -0.8367 -0.5213 0.1678
vn -0.1697 -0.1697 -0.9708
vn -0.1697 0.1697 -0.9708
vn 0.1697 -0.1697 -0.9708
vn 0.1697 0.1697 -0.9708
vn -0.4674 -0.4674 -0.7504
vn -0.5213 -0.1678 -0.8367
vn -0.5213 0.1678 -0.8367
vn -0.4674 0.4674 -0.7504
vn -0.1678 0.5213 -0.8367
vn 0.1678 0.5213 -0.8367
vn 0.4674 0.4674 -0.7504
vn 0.5213 0.1678 -0.8367
vn 0.5213 -0.1678 -0.8367
vn 0.4674 -0.4674 -0.7504
vn 0.1678 -0.5213 -0.8367
vn -0.1678 -0.5213 -0.8367
vn 0.9708 -0.1697 -0.1697
vn 0.9708 0.1697 -0.1697
vn 0.9708 -0.1697 0.1697
vn 0.9708 0.1697 0.1697
vn 0.7504 -0.4674 -0.4674
vn 0.8367 -0.1678 -0.5213
vn 0.8367 0.1678 -0.5213
vn 0.7504 0.4674 -0.4674
vn 0.8367 0.5213 -0.1678
vn 0.8367 0.5213 0.1678
vn 0.7504 0.4674 0.4674
vn 0.8367 0.1678 0.5213
vn 0.8367 -0.1678 0.5213
vn 0.7504 -0.4674 0.4674
vn 0.8367 -0.5213 0.1678
vn 0.8367 -0.5213 -0.1678
vn 0.1697 -0.1697 0.9708
vn 0.1697 0.1697 0.9708
vn -0.1697 -0.1697 0.9708
vn -0.1697 0.1697 0.9708
vn 0.4674 -0.4674 0.7504
vn 0.5213 -0.1678 0.8367
vn 0.5213 0.1678 0.8367
vn 0.4674 0.4674 0.7504
vn 0.1678 0.5213 0.8367
vn -0.1678 0.5213 0.8367
vn -0.4674 0.4674 0.7504
vn -0.5213 0.1678 0.8367
vn -0.5213 -0.1678 0.8367
vn -0.4674 -0.4674 0.7504
vn -0.1678 -0.5213 0.8367
vn 0.1678 -0.5213 0.8367
vn -0.1697 -0.9708 -0.1697
vn 0.1697 -0.9708 -0.1697
vn -0.1697 -0.9708 0.1697
vn 0.1697 -0.9708 0.1697
vn -0.4674 -0.7504 -0.4674
vn -0.1678 -0.8367 -0.5213
vn 0.1678 -0.8367 -0.5213
vn 0.4674 -0.7504 -0.4674
vn 0.5213 -0.8367 -0.1678
vn 0.5213 -0.8367 0.1678
vn 0.4674 -0.7504 0.4674
vn 0.1678 -0.8367 0.5213
vn -0.1678 -0.8367 0.5213
vn -0.4674 -0.7504 0.4674
vn -0.5213 -0.8367 0.1678
vn -0.5213 -0.8367 -0.1678
vn 0.1697 0.9708 -0.1697
vn -0.1697 0.9708 -0.1697
vn 0.1697 0.9708 0.1697
vn -0.1697 0.9708 0.1697
vn 0.4674 0.7504 -0.4674
vn 0.1678 0.8367 -0.5213
vn -0.1678 0.8367 -0.5213
vn -0.4674 0.7504 -0.4674
vn -0.5213 0.8367 -0.1678
vn -0.5213 0.8367 0.1678
vn -0.4674 0.7504 0.4674
vn -0.1678 0.8367 0.5213
vn 0.1678 0.8367 0.5213
vn 0.4674 0.7504 0.4674
vn 0.5213 0.8367 0.1678
vn 0.5213 0.8367 -0.1678
vt 0.437500 0.062500
vt 0.500000 0.062500
vt 0.500000 0.125000
vt 0.437500 0.125000
vt 0.562500 0.062500
vt 0.562500 0.125000
vt 0.500000 0.187500
vt 0.437500 0.187500
vt 0.562500 0.187500
vt 0.375000 0.000000
vt 0.437500 0.000000
vt 0.375000 0.062500
vt 0.500000 0.000000
vt 0.562500 0.000000
vt 0.625000 0.000000
vt 0.625000 0.062500
vt 0.625000 0.125000
vt 0.625000 0.187500
vt 0.625000 0.250000
vt 0.562500 0.250000
vt 0.500000 0.250000
vt 0.437500 0.250000
vt 0.375000 0.187500
vt 0.375000 0.250000
vt 0.375000 0.125000
vt 0.437500 0.312500
vt 0.500000 0.312500
vt 0.500000 0.375000
vt 0.437500 0.375000
vt 0.562500 0.312500
vt 0.562500 0.375000
vt 0.500000 0.437500
vt 0.437500 0.437500
vt 0.562500 0.437500
vt 0.375000 0.312500
vt 0.625000 0.312500
vt 0.625000 0.375000
vt 0.625000 0.437500
vt 0.625000 0.500000
vt 0.562500 0.500000
vt 0.500000 0.500000
vt 0.437500 0.500000
vt 0.375000 0.437500
vt 0.375000 0.500000
vt 0.375000 0.375000
vt 0.437500 0.562500
vt 0.500000 0.562500
vt 0.500000 0.625000
vt 0.437500 0.625000
vt 0.562500 0.562500
vt 0.562500 0.625000
vt 0.500000 0.687500
vt 0.437500 0.687500
vt 0.562500 0.687500
vt 0.375000 0.562500
vt 0.625000 0.562500
vt 0.625000 0.625000
vt 0.625000 0.687500
vt 0.625000 0.750000
vt 0.562500 0.750000
vt 0.500000 0.750000
vt 0.437500 0.750000
vt 0.375000 0.687500
vt 0.375000 0.750000
vt 0.375000 0.625000
vt 0.437500 0.812500
vt 0.500000 0.812500
vt 0.500000 0.875000
vt 0.437500 0.875000
vt 0.562500 0.812500
vt 0.562500 0.875000
vt 0.500000 0.937500
vt 0.437500 0.937500
vt 0.562500 0.937500
vt 0.375000 0.812500
vt 0.625000 0.812500
vt 0.625000 0.875000
vt 0.625000 0.937500
vt 0.625000 1.000000
vt 0.562500 1.000000
vt 0.500000 1.000000
vt 0.437500 1.000000
vt 0.375000 0.937500
vt 0.375000 1.000000
vt 0.375000 0.875000
vt 0.187500 0.562500
vt 0.250000 0.562500
vt 0.250000 0.625000
vt 0.187500 0.625000
vt 0.312500 0.562500
vt 0.312500 0.625000
vt 0.250000 0.687500
vt 0.187500 0.687500
vt 0.312500 0.687500
vt 0.125000 0.500000
vt 0.187500 0.500000
vt 0.125000 0.562500
vt 0.250000 0.500000
vt 0.312500 0.500000
vt 0.312500 0.750000
vt 0.250000 0.750000
vt 0.187500 0.750000
vt 0.125000 0.687500
vt 0.125000 0.750000
vt 0.125000 0.625000
vt 0.687500 0.562500
vt 0.750000 0.562500
vt 0.750000 0.625000
vt 0.687500 0.625000
vt 0.812500 0.562500
vt 0.812500 0.625000
vt 0.750000 0.687500
vt 0.687500 0.687500
vt 0.812500 0.687500
vt 0.687500 0.500000
vt 0.750000 0.500000
vt 0.812500 0.500000
vt 0.875000 0.500000
vt 0.875000 0.562500
vt 0.875000 0.625000
vt 0.875000 0.687500
vt 0.875000 0.750000
vt 0.812500 0.750000
vt 0.750000 0.750000
vt 0.687500 0.750000
s 0
f 53/15/7 54/16/7 57/17/7 56/18/7
f 54/16/8 55/19/8 58/20/8 57/17/8
f 56/18/9 57/17/9 60/21/9 59/22/9
f 57/17/10 58/20/10 61/23/10 60/21/10
f 9/24/11 20/25/11 53/15/11 19/26/11
f 20/25/12 21/27/12 54/16/12 53/15/12
f 21/27/13 22/28/13 55/19/13 54/16/13
f 22/28/14 10/29/14 23/30/14 55/19/14
f 55/19/15 23/30/15 24/31/15 58/20/15
f 58/20/16 24/31/16 25/32/16 61/23/16
f 61/23/17 25/32/17 12/33/17 26/34/17
f 60/21/18 61/23/18 26/34/18 27/35/18
f 59/22/19 60/21/19 27/35/19 28/36/19
f 17/37/20 59/22/20 28/36/20 11/38/20
f 18/39/21 56/18/21 59/22/21 17/37/21
f 19/26/22 53/15/22 56/18/22 18/39/22
f 62/40/23 63/41/23 66/42/23 65/43/23
f 63/41/24 64/44/24 67/45/24 66/42/24
f 65/43/25 66/42/25 69/46/25 68/47/25
f 66/42/26 67/45/26 70/48/26 69/46/26
f 11/38/27 28/36/27 62/40/27 31/49/27
f 28/36/28 27/35/28 63/41/28 62/40/28
f 27/35/29 26/34/29 64/44/29 63/41/29
f 26/34/30 12/33/30 32/50/30 64/44/30
f 64/44/31 32/50/31 33/51/31 67/45/31
f 67/45/32 33/51/32 34/52/32 70/48/32
f 70/48/33 34/52/33 16/53/33 35/54/33
f 69/46/34 70/48/34 35/54/34 36/55/34
f 68/47/35 69/46/35 36/55/35 37/56/35
f 29/57/36 68/47/36 37/56/36 15/58/36
f 30/59/37 65/43/37 68/47/37 29/57/37
f 31/49/38 62/40/38 65/43/38 30/59/38
f 71/60/39 72/61/39 75/62/39 74/63/39
f 72/61/40 73/64/40 76/65/40 75/62/40
f 74/63/41 75/62/41 78/66/41 77/67/41
f 75/62/42 76/65/42 79/68/42 78/66/42
f 15/58/43 37/56/43 71/60/43 40/69/43
f 37/56/44 36/55/44 72/61/44 71/60/44
f 36/55/45 35/54/45 73/64/45 72/61/45
f 35/54/46 16/53/46 41/70/46 73/64/46
f 73/64/47 41/70/47 42/71/47 76/65/47
f 76/65/48 42/71/48 43/72/48 79/68/48
f 79/68/49 43/72/49 14/73/49 44/74/49
f 78/66/50 79/68/50 44/74/50 45/75/50
f 77/67/51 78/66/51 45/75/51 46/76/51
f 38/77/52 77/67/52 46/76/52 13/78/52
f 39/79/53 74/63/53 77/67/53 38/77/53
f 40/69/54 71/60/54 74/63/54 39/79/54
f 80/80/55 81/81/55 84/82/55 83/83/55
f 81/81/56 82/84/56 85/85/56 84/82/56
f 83/83/57 84/82/57 87/86/57 86/87/57
f 84/82/58 85/85/58 88/88/58 87/86/58
f 13/78/59 46/76/59 80/80/59 49/89/59
f 46/76/60 45/75/60 81/81/60 80/80/60
f 45/75/61 44/74/61 82/84/61 81/81/61
f 44/74/62 14/73/62 50/90/62 82/84/62
f 82/84/63 50/90/63 51/91/63 85/85/63
f 85/85/64 51/91/64 52/92/64 88/88/64
f 88/88/65 52/92/65 10/93/65 22/94/65
f 87/86/66 88/88/66 22/94/66 21/95/66
f 86/87/67 87/86/67 21/95/67 20/96/67
f 47/97/68 86/87/68 20/96/68 9/98/68
f 48/99/69 83/83/69 86/87/69 47/97/69
f 49/89/70 80/80/70 83/83/70 48/99/70
f 89/100/71 90/101/71 93/102/71 92/103/71
f 90/101/72 91/104/72 94/105/72 93/102/72
f 92/103/73 93/102/73 96/106/73 95/107/73
f 93/102/74 94/105/74 97/108/74 96/106/74
f 11/109/75 31/110/75 89/100/75 17/111/75
f 31/110/76 30/112/76 90/101/76 89/100/76
f 30/112/77 29/113/77 91/104/77 90/101/77
f 29/113/78 15/58/78 40/69/78 91/104/78
f 91/104/79 40/69/79 39/79/79 94/105/79
f 94/105/80 39/79/80 38/77/80 97/108/80
f 97/108/81 38/77/81 13/78/81 49/114/81
f 96/106/82 97/108/82 49/114/82 48/115/82
f 95/107/83 96/106/83 48/115/83 47/116/83
f 19/117/84 95/107/84 47/116/84 9/118/84
f 18/119/85 92/103/85 95/107/85 19/117/85
f 17/111/86 89/100/86 92/103/86 18/119/86
f 98/120/87 99/121/87 102/122/87 101/123/87
f 99/121/88 100/124/88 103/125/88 102/122/88
f 101/123/89 102/122/89 105/126/89 104/127/89
f 102/122/90 103/125/90 106/128/90 105/126/90
f 16/53/91 34/129/91 98/120/91 41/70/91
f 34/129/92 33/130/92 99/121/92 98/120/92
f 33/130/93 32/131/93 100/124/93 99/121/93
f 32/131/94 12/132/94 25/133/94 100/124/94
f 100/124/95 25/133/95 24/134/95 103/125/95
f 103/125/96 24/134/96 23/135/96 106/128/96
f 106/128/97 23/135/97 10/136/97 52/137/97
f 105/126/98 106/128/98 52/137/98 51/138/98
f 104/127/99 105/126/99 51/138/99 50/139/99
f 43/72/100 104/127/100 50/139/100 14/73/100
f 42/71/101 101/123/101 104/127/101 43/72/101
f 41/70/102 98/120/102 101/123/102 42/71/102
